# xmcd CD database file
#
# Track frame offsets:
#	150
#	16473
#	27057
#	35362
#	52481
#	63132
#	82811
#	93988
#	107085
#	125219
#	138217
#	148343
#
# Disc length: 2135 seconds
#
# Revision: 3
# Processed by: cddbd v1.5.1PL2 Copyright (c) Steve Scherf et al.
# Submitted via: CDex 1.51
#
DISCID=a408550c
DTITLE=Sleepy John Estes - The Legend Of Sleepy John Estes
DYEAR=1900
DGENRE=Blues
TTITLE0=Rats In My Kitchen
TTITLE1=Someday Baby
TTITLE2=Stop That Thing
TTITLE3=Diving Duck Blues
TTITLE4=Death Valley Blues
TTITLE5=Married Woman Blues
TTITLE6=Down South Blues
TTITLE7=Who's Been Telling You, Buddy Brown
TTITLE8=Drop Down Mama
TTITLE9=You Got To Go
TTITLE10=Milk Cow Blues
TTITLE11=I'd Been Well Warned
EXTD=Delmark DD-603\n\nSleepy John Estes:  vocals and guitar\nHammie Nixon:  harmonica\nJohn "Knocky" Parker:  piano\nEd Wilkinson:  bass\n\nRecorded March 24, 1962
EXTT0=
EXTT1=
EXTT2=
EXTT3=
EXTT4=
EXTT5=
EXTT6=
EXTT7=
EXTT8=
EXTT9=
EXTT10=
EXTT11=
PLAYORDER=
